<svg width="680" height="304" viewBox="0 0 680 304" fill="none" xmlns="http://www.w3.org/2000/svg">
<g clip-path="url(#clip0_223_220)">
<path d="M795.794 126.09C812.165 140.537 820.503 145.704 842.612 152.241C842.612 152.241 857.157 155.212 866.844 159.226C876.531 163.239 884.595 175.068 876.986 180.766C869.621 186.281 862.341 186.752 851.148 190.274C838.573 194.231 807.573 190.662 796.841 186.815C772.532 178.1 753.277 163.347 748.975 148.575C747.356 143.014 748.377 137.125 748.377 131.489V110.779C748.377 104.404 749.214 97.9141 742.992 92.1029C734.708 84.3654 723.614 91.939 718.686 96.3559C707.907 106.016 695.913 113.683 681.365 121.948C671.406 127.606 659.897 127.534 646.364 124.462C631.529 121.095 621.699 111.198 612.484 105.047C607.75 101.886 600.773 97.0058 591.543 98.0201C584.264 98.8199 577.405 107.834 574.416 110.631C568.518 116.152 558.021 117.685 546.445 116.474C536.502 115.434 523.631 108.946 518.174 104.899C509.39 98.3835 507.352 89.8739 496.56 84.0038C487.389 79.0154 476.904 73.9859 464.026 71.3558C451.953 68.8898 439.817 67.494 429.997 62.9978C412.949 55.1922 415.454 41.2607 421.845 31.2669C427.837 21.8969 447.409 0.219727 472.702 7.45026C493.098 13.281 494.976 22.8962 504.862 32.4503C511.948 39.2996 522.172 45.1809 528.944 52.1989C536.326 59.8497 541.464 68.77 553.026 75.202C566.267 82.568 577.443 73.5522 583.092 68.0274C590.024 61.2478 601.781 54.5024 618.093 59.5214C637.156 65.3867 631.116 100.651 667.604 89.6251C679.82 85.9336 681.536 75.252 683.759 69.0629C687.225 59.4113 693.239 49.1578 709.038 42.7314C737.618 31.1064 758.753 74.7853 762.512 81.0082C771.858 96.479 779.738 111.921 795.794 126.09Z" fill="#FFC7C7"/>
<path d="M-142.319 86.9265C-139.286 64.8509 -132.798 42.22 -127.796 20.3722L-122.929 9.90253C-109.519 -13.7824 -106.105 19.9737 -103.727 43.9257C-102.383 57.4652 -107.776 77.0684 -108.959 91.474C-110.994 116.255 -109.068 140.423 -98.1267 155.161C-83.1341 175.357 -56.949 168.491 -43.3566 135.602C-33.4811 111.707 -30.2931 84.4462 -22.7368 59.5777C-17.6696 42.9008 -3.76418 7.69891 9.85325 10.8166C22.3798 13.6846 28.105 39.3908 32.4996 54.8789C35.1458 64.2051 40.2878 83.48 49.1328 82.3125C52.8262 81.825 54.8283 69.6539 55.6726 65.9661C59.3301 49.9911 63.7759 29.1333 72.7434 17.1409C83.5774 2.65222 96.1273 0.867541 107.445 4.6503C130.721 12.43 146.854 31.5261 162.066 57.2294C178.208 84.5055 203.393 119.953 201.469 164.84C200.845 179.391 196.214 201.607 188.517 213.611C182.492 223.008 173.493 220.449 167.807 217.243C154.497 209.739 143.299 192.529 135.093 175.561C124.474 153.604 119.768 127.161 111.502 102.872C107.078 89.8749 92.626 85.6869 85.1653 103.521C75.1009 127.58 74.2098 155.968 64.6199 180.26C57.1149 199.271 43.8037 197.366 34.5975 191.031C24.5496 184.117 18.5603 168.396 14.3212 152.994C11.541 142.892 5.73286 112.242 -5.63787 121.111C-15.7773 129.019 -22.0552 149.699 -26.7923 164.116C-33.8119 185.48 -39.7799 210.543 -49.4586 230.102C-57.5046 246.362 -64.898 251.366 -75.8102 247.196C-104.596 236.195 -119.629 193.442 -133.335 156.869C-140.252 138.412 -145.685 111.421 -142.319 86.9265Z" fill="#0590CB"/>
<path d="M435.195 209.243C436.418 198.525 438.458 185.199 444.05 179.681L452.375 165.193C458.692 156.2 453.097 164.142 459.032 154.231C465.095 144.106 470.083 132.02 480.417 129.771C491.306 127.401 493.392 139.458 493.018 153.49C492.845 159.964 492.148 197.96 502.669 193.421C509.171 190.616 515.71 177.839 519.157 169.995C523.008 161.231 524.617 151.06 529.417 142.968C538.858 127.057 560.863 132.407 574.915 137.172C592.508 143.138 625.344 163.761 617.925 196.023C613.183 216.641 603.911 237.135 617.716 259.463C620.052 263.241 634.544 238.775 637.355 236.221C644.722 229.525 663.372 222.848 672.034 235.128C680.779 247.525 666.318 275.23 662.489 282.895C659.973 287.932 647.898 318.022 662.933 317.121C677.801 316.23 692.205 304.111 702.269 290.723C714.43 274.545 727.79 260.363 740.037 244.301C750.178 231.002 769.826 213.057 785.942 226.548C802.147 240.112 803.46 275.095 796.6 293.603C782.914 330.528 758.511 361.231 738.626 390.911C717.722 422.111 686.296 462.513 650.217 449.317C626.238 440.546 620.634 402.772 626.073 376.03C627.485 369.092 637.442 326.539 622.944 328.764C598.649 332.492 586.058 378.172 558.16 356.847C548.391 349.38 549.581 332.902 549.97 320.638C550.693 297.865 560.876 275.715 566.369 255.591C569.555 243.919 572.837 231.495 570.044 217.813C568.509 210.298 565.345 195.945 558.345 195.256C551.783 194.611 547.028 200.996 542.584 205.998C535.904 213.52 528.723 220.131 521.922 227.435C510.641 239.549 449.608 314.788 439.022 258.598C436.063 242.896 433.455 224.497 435.195 209.243Z" fill="#7DE2F2"/>
<path d="M236.971 439.004C257.48 442.74 279.883 442.768 300.996 444.215L312.119 442.129C338.261 434.71 310.18 419.937 290.236 409.505C278.962 403.608 259.649 403.328 246.59 399.994C224.125 394.26 203.809 384.265 195.398 367.181C183.873 343.771 200.534 316.53 234.787 311.886C259.673 308.512 284.773 313.753 309.564 313.304C326.188 313.003 362.588 308.756 365.413 292.423C368.012 277.399 347.9 262.633 336.168 252.672C329.103 246.674 314.369 234.646 318.992 225.072C320.922 221.074 332.364 222.762 335.928 223.007C351.366 224.064 371.388 225.816 385.511 219.61C402.575 212.111 409.246 198.567 410.553 184.607C413.243 155.897 403.143 131.559 386.898 106.119C369.659 79.1224 348.97 39.3045 308.995 26.9337C296.037 22.9233 274.753 20.9404 261.137 25.7134C250.478 29.4499 249.046 40.4045 249.529 47.841C250.659 65.2474 261.123 83.4214 272.595 98.1499C287.439 117.209 308.61 131.068 326.449 148.235C335.994 157.421 333.764 175.039 315.153 177.659C290.048 181.193 264.899 173.002 239.783 175.926C220.127 178.215 216.368 193.81 218.148 206.22C220.092 219.765 231.378 231.596 243.098 241.353C250.786 247.753 275.18 264.214 262.805 274.137C251.769 282.985 231.157 283.352 216.639 284.014C195.126 284.994 170.813 283.593 149.793 288.15C132.319 291.938 124.938 298.636 124.133 312.266C122.011 348.219 153.215 378.979 179.563 406.246C192.861 420.006 214.213 434.859 236.971 439.004Z" fill="#8B7FFF"/>
</g>
<defs>
<clipPath id="clip0_223_220">
<rect width="680" height="304" fill="white"/>
</clipPath>
</defs>
</svg>
