<svg width="680" height="304" viewBox="0 0 680 304" fill="none" xmlns="http://www.w3.org/2000/svg">
<g clip-path="url(#clip0_223_213)">
<path d="M682.821 208.236C678.397 219.336 672.399 232.986 665.371 237.241L653.007 250.281C644.231 258.038 651.997 251.192 643.308 260.044C634.432 269.085 625.989 280.54 615.417 279.902C604.277 279.229 605.941 265.722 610.559 250.826C612.69 243.954 624.893 203.527 613.446 205.283C606.373 206.367 596.236 218.105 590.557 225.478C584.21 233.716 579.583 244.118 572.532 251.358C558.667 265.593 539.233 253.39 527.232 244.156C512.208 232.596 487.046 200.871 503.941 168.556C514.738 147.903 529.832 128.719 523.4 100.776C522.312 96.0476 501.015 117.943 497.551 119.846C488.467 124.837 468.593 126.485 464.032 110.802C459.427 94.9693 481.677 69.6018 487.668 62.5322C491.604 57.8873 512.296 29.2653 497.634 25.8008C483.135 22.3749 465.671 31.0921 451.976 42.4452C435.426 56.1644 418.336 67.3952 401.74 80.9645C387.998 92.2 363.747 105.603 352.42 86.43C341.03 67.1524 350.395 29.3557 362.579 11.5834C386.886 -23.8722 419.561 -49.5184 447.6 -75.4009C477.077 -102.609 519.416 -136.559 549.936 -111.821C570.221 -95.3794 564.116 -53.3338 550.792 -26.3392C547.335 -19.3353 524.887 23.2373 539.436 25.128C563.818 28.2967 589.735 -16.8445 609.959 14.1759C617.04 25.0386 610.899 42.3091 606.803 55.3089C599.198 79.4491 582.728 100.137 571.363 120.039C564.77 131.583 557.857 143.902 556.377 159.356C555.564 167.844 554.234 184.125 560.723 186.923C566.807 189.545 573.296 184.118 579.067 180.077C587.744 174.001 596.623 169.046 605.348 163.239C619.822 153.606 701.071 91.1235 694.143 154.329C692.207 171.992 689.117 192.436 682.821 208.236Z" fill="#F9C558"/>
<path d="M261.368 -11.2077C259.735 -23.1323 257.184 -37.919 251.373 -43.6748L242.483 -59.2769C235.814 -68.8726 241.72 -60.3994 235.398 -71.055C228.94 -81.9396 223.484 -95.1068 213.048 -96.8278C202.051 -98.6412 200.421 -84.9577 201.33 -69.2494C201.749 -62.0021 203.895 -19.4436 193.184 -23.7184C186.565 -26.36 179.529 -40.1829 175.778 -48.7117C171.587 -58.2425 169.588 -69.5241 164.472 -78.2268C154.41 -95.3399 132.574 -87.6324 118.681 -81.1985C101.288 -73.1439 69.1843 -47.4685 77.8441 -11.8614C83.3783 10.8943 93.4453 33.1591 80.4684 59.2708C78.2727 63.6889 62.8258 37.3742 59.9139 34.7279C52.2796 27.7896 33.3461 21.7472 25.1375 36.1916C16.8512 50.7729 32.3901 80.722 36.5171 89.022C39.2285 94.4752 52.4692 127.286 37.3756 127.441C22.45 127.595 7.56097 115.121 -3.02865 100.886C-15.8253 83.6853 -29.7463 68.8167 -42.6245 51.7531C-53.2878 37.6242 -73.6505 19.0234 -89.279 35.4026C-104.993 51.8715 -104.976 91.207 -97.3999 111.432C-82.2859 151.782 -56.6745 184.323 -35.6278 216.067C-13.503 249.437 19.5118 292.311 55.1455 274.713C78.8287 263.016 83.0039 220.218 76.5371 190.649C74.8592 182.977 63.2661 136.026 77.871 137.397C102.347 139.693 116.697 189.947 143.828 163.868C153.328 154.736 151.508 136.348 150.652 122.624C149.061 97.1403 138.018 73.0882 131.75 50.9459C128.115 38.1022 124.354 24.4231 126.631 8.8627C127.882 0.315403 130.504 -16.0271 137.489 -17.3421C144.037 -18.575 149.043 -11.7834 153.684 -6.51742C160.662 1.39996 168.106 8.25771 175.195 15.9211C186.955 28.6326 250.951 108.279 259.415 44.4418C261.78 26.602 263.692 5.76514 261.368 -11.2077Z" fill="#00B99A"/>
<path d="M435.952 169.267C434.472 152.944 433.27 147.315 429.593 139.487C425.262 130.267 425.441 127.437 418.913 123.771C412.385 120.106 410.273 117.939 400.938 118.913C390.537 119.999 378.621 133.974 378.621 133.974C375.758 136.531 371.704 140.819 369.615 143.506C366.35 147.704 351.457 171.701 338.452 193.72C332.811 203.272 326.883 205.001 324.216 197.873C323.706 196.509 324.767 186.785 326.576 176.264C332.122 143.988 333.988 129.096 332.984 125.11C331.658 119.836 326.41 113.974 321.634 112.427C306.112 107.402 286.125 118.023 274.84 137.29C267.851 149.224 261.692 157.166 258.794 157.982C254.56 159.174 253.329 154.784 253.348 138.568C253.363 126.619 252.523 120.579 250.17 115.689C242.793 100.361 225.189 97.1958 206.914 107.915C188.769 118.557 186.55 130.073 194.305 173.368C197.181 189.427 197.429 193.715 196.259 207.11C194.421 228.119 197.62 236.756 208.04 238.922C220.46 241.505 231.906 234.499 253.015 211.394C266.306 196.845 269.819 194.597 273.703 198.155C276.428 200.652 276.432 200.521 273.03 226.034C270.742 243.187 272.134 256.355 277.152 265.03C289.061 285.617 298.223 289.129 314.662 279.412C330.456 270.077 341.565 255.577 367.346 210.659C375.637 196.212 379.088 192.852 382.647 195.758C384.523 197.289 381.477 219.744 377.916 230.646L373 267.539C374.053 278.177 378.782 288.296 385.05 293.32C391.362 298.378 403.632 299.249 413.35 295.325C425.879 290.267 431.743 283.627 439.041 266.227C445.772 250.181 446.916 228.033 442.082 207.334C439.096 194.55 437.146 182.445 435.952 169.267Z" fill="#FE8363"/>
</g>
<defs>
<clipPath id="clip0_223_213">
<rect width="680" height="304" fill="white"/>
</clipPath>
</defs>
</svg>
